#!OML:ASF F:\VICON\USERDATA\INSTALL\rory3\rory3.ASF
:FULLY-SPECIFIED
:DEGREES
495
root 4.62576 15.9575 1.75911 17.5985 -5.66992 -2.23667
lowerback 7.61825 -0.726017 1.54355
upperback 3.96248 -0.867754 -0.117063
thorax -0.204594 -0.413196 -0.920435
lowerneck -16.7482 -1.14626 -0.639856
upperneck 41.8433 -1.04533 -1.48523
head 18.6415 -0.773198 -0.819774
rclavicle -1.47101e-014 2.38542e-015
rhumerus -18.7264 57.9238 -52.0627
rradius 88.035
rwrist -33.4286
rhand -7.82172 -46.2369
rfingers 7.12502
rthumb 18.0804 -75.4166
lclavicle -1.47101e-014 2.38542e-015
lhumerus 20.7783 -65.393 25.1531
lradius 85.6775
lwrist 81.4112
lhand -31.2603 -23.2004
lfingers 7.12502
lthumb -4.53453 6.73105
rfemur -69.6037 0.584456 14.8456
rtibia 34.7506
rfoot 39.1518 -0.197272
rtoes 2.75842
lfemur -50.7595 -0.111011 -28.837
ltibia 57.5238
lfoot -22.7833 5.74409
ltoes 16.1143
496
root 4.62768 15.9521 1.76157 17.7243 -5.62362 -2.33957
lowerback 7.65447 -0.747716 1.66415
upperback 3.99367 -0.887887 -0.0841952
thorax -0.193979 -0.421628 -0.952537
lowerneck -16.8415 -1.14822 -0.627637
upperneck 41.7878 -1.01718 -1.56249
head 18.6327 -0.7707 -0.85309
rclavicle 6.36111e-015 0
rhumerus -19.9375 58.0956 -53.0957
rradius 87.8183
rwrist -33.3302
rhand -8.04652 -45.8998
rfingers 7.12502
rthumb 17.8641 -75.0994
lclavicle 6.36111e-015 0
lhumerus 20.7531 -66.1287 24.9025
lradius 85.5455
lwrist 81.4182
lhand -31.811 -23.4424
lfingers 7.12502
lthumb -5.06625 6.477
rfemur -69.7639 0.698306 14.731
rtibia 34.837
rfoot 39.0034 0.129387
rtoes 2.65318
lfemur -50.9508 -0.0807379 -28.7618
ltibia 57.6589
lfoot -22.8024 5.79221
ltoes 15.9681
497
root 4.62829 15.9469 1.76717 17.802 -5.65683 -2.43763
lowerback 7.69914 -0.734962 1.73543
upperback 4.00856 -0.865262 -0.0388312
thorax -0.202796 -0.409823 -0.947194
lowerneck -16.6832 -1.15179 -0.647106
upperneck 41.6342 -0.961141 -1.68794
head 18.4951 -0.769261 -0.892455
rclavicle -1.13307e-014 1.59028e-014
rhumerus -21.1135 58.2632 -54.0501
rradius 87.604
rwrist -33.5349
rhand -8.26261 -45.6252
rfingers 7.12502
rthumb 17.6561 -74.8436
lclavicle -1.13307e-014 1.59028e-014
lhumerus 20.5 -66.892 24.986
lradius 85.3797
lwrist 81.5487
lhand -32.1415 -23.9006
lfingers 7.12502
lthumb -5.38532 6.01094
rfemur -69.8502 0.864609 14.6458
rtibia 34.9162
rfoot 38.9277 0.46519
rtoes 2.75804
lfemur -51.0649 0.0634091 -28.7178
ltibia 57.7786
lfoot -22.8956 5.74041
ltoes 15.9895
498
root 4.62734 15.9466 1.77092 17.8217 -5.73477 -2.54092
lowerback 7.79472 -0.700814 1.75245
upperback 4.04066 -0.817305 -0.0157475
thorax -0.22081 -0.385951 -0.935881
lowerneck -16.6758 -1.16814 -0.669431
upperneck 41.7347 -0.962126 -1.72492
head 18.5545 -0.778305 -0.908435
rclavicle 1.19271e-014 -1.94809e-014
rhumerus -22.1217 58.4728 -54.9445
rradius 87.3288
rwrist -33.886
rhand -8.40877 -45.5475
rfingers 7.12502
rthumb 17.5155 -74.7784
lclavicle 1.19271e-014 -1.94809e-014
lhumerus 20.2223 -67.5922 25.0686
lradius 85.2367
lwrist 81.7546
lhand -32.2383 -24.5528
lfingers 7.12502
lthumb -5.47885 5.35638
rfemur -69.8396 1.13987 14.5184
rtibia 34.9664
rfoot 38.8116 0.308525
rtoes 2.9216
lfemur -51.1451 0.251062 -28.648
ltibia 57.8652
lfoot -22.9931 5.62007
ltoes 15.9782
499
root 4.625 15.9452 1.77198 17.823 -5.8055 -2.57769
lowerback 7.85769 -0.673597 1.70665
upperback 4.16471 -0.784807 -0.0315047
thorax -0.126118 -0.368881 -0.929107
lowerneck -16.958 -1.1972 -0.71901
upperneck 41.9245 -1.02151 -1.64037
head 18.7502 -0.797272 -0.879147
rclavicle -8.54774e-015 -8.34896e-015
rhumerus -22.8218 58.5748 -55.6643
rradius 86.9748
rwrist -34.0987
rhand -8.49315 -45.3752
rfingers 7.12502
rthumb 17.4343 -74.6134
lclavicle -8.54774e-015 -8.34896e-015
lhumerus 19.9984 -68.0985 25.0488
lradius 85.1061
lwrist 81.8715
lhand -32.1908 -25.1035
lfingers 7.12502
lthumb -5.43292 4.80681
rfemur -69.8334 1.43324 14.2727
rtibia 34.9771
rfoot 38.6748 0.0782186
rtoes 3.03714
lfemur -51.2128 0.407233 -28.6385
ltibia 57.9442
lfoot -23.0835 5.52002
ltoes 15.8345
500
root 4.62204 15.9383 1.7702 17.9443 -5.87247 -2.58203
lowerback 7.83796 -0.653473 1.64994
upperback 4.27739 -0.763841 -0.047482
thorax 0.0021879 -0.357569 -0.9163
lowerneck -17.0268 -1.20468 -0.794236
upperneck 41.696 -1.04077 -1.54897
head 18.6298 -0.803832 -0.821355
rclavicle 3.18055e-015 -4.77083e-015
rhumerus -23.5343 58.4516 -56.3507
rradius 86.6808
rwrist -33.9754
rhand -8.49681 -45.3453
rfingers 7.12502
rthumb 17.4308 -74.5837
lclavicle 3.18055e-015 -4.77083e-015
lhumerus 19.519 -68.4411 25.3279
lradius 84.9328
lwrist 81.8234
lhand -32.2301 -25.2948
lfingers 7.12502
lthumb -5.47093 4.61462
rfemur -70.0132 1.63001 14.059
rtibia 34.9693
rfoot 38.73 0.121241
rtoes 3.20551
lfemur -51.405 0.607978 -28.7035
ltibia 58.0439
lfoot -23.2031 5.42344
ltoes 15.4352
501
root 4.61988 15.9344 1.76778 18.1295 -5.85884 -2.65855
lowerback 7.84319 -0.664291 1.64954
upperback 4.32904 -0.77838 -0.012145
thorax 0.0527546 -0.36455 -0.878868
lowerneck -17.0976 -1.15564 -0.700471
upperneck 41.4321 -0.938893 -1.68379
head 18.4872 -0.767447 -0.876855
rclavicle 7.35503e-015 -1.31198e-014
rhumerus -24.3663 58.268 -57.1009
rradius 86.4946
rwrist -33.602
rhand -8.54036 -45.3563
rfingers 7.12502
rthumb 17.3888 -74.5984
lclavicle 7.35503e-015 -1.31198e-014
lhumerus 18.3669 -68.7788 26.2948
lradius 84.7348
lwrist 81.4952
lhand -32.3618 -25.5558
lfingers 7.12502
lthumb -5.59807 4.35027
rfemur -70.24 1.72186 14.0055
rtibia 34.9907
rfoot 38.8201 -0.0337475
rtoes 3.62631
lfemur -51.6805 0.810188 -28.6884
ltibia 58.1601
lfoot -23.2966 5.25121
ltoes 15.3265
